<svg viewBox="0 0 110 110" xmlns="http://www.w3.org/2000/svg">
  <path fill="#FFDE50"
    d="M109.6 55C109.592 67.0347 105.609 78.7297 98.2694 88.2675C90.9302 97.8052 80.646 104.652 69.015 107.743C57.3841 110.834 45.0578 109.997 33.9517 105.361C22.8457 100.725 13.5819 92.5507 7.60003 82.108C4.80259 77.2479 2.7822 71.9803 1.61203 66.496C0.804928 62.7173 0.39868 58.864 0.400028 55C0.404697 46.7002 2.30042 38.5106 5.94326 31.0529C9.58609 23.5953 14.8803 17.0657 21.4238 11.96C27.9674 6.85424 35.5882 3.30656 43.7078 1.58632C51.8274 -0.133924 60.2322 0.0184979 68.284 2.03201C73.7201 3.38374 78.9109 5.57832 83.668 8.53601C91.5928 13.428 98.1352 20.2648 102.674 28.3971C107.213 36.5293 109.597 45.6869 109.6 55Z" />
  <path fill="#F68E00"
    d="M100 55C100.004 66.5349 95.5765 77.6305 87.6327 85.9942C79.689 94.3578 68.8359 99.3503 57.316 99.94H57.28C56.524 99.976 55.768 100 55 100C43.7347 100 32.8789 95.7753 24.5774 88.16C16.2758 80.5447 11.1323 70.0928 10.163 58.8692C9.19363 47.6456 12.469 36.4667 19.3419 27.5408C26.2148 18.6149 36.1854 12.5913 47.284 10.66H47.32C53.7837 9.53859 60.4143 9.84429 66.7473 11.5557C73.0804 13.2671 78.9625 16.3428 83.9815 20.5672C89.0005 24.7916 93.0349 30.0625 95.802 36.0106C98.5691 41.9586 100.002 48.4398 100 55Z" />
  <path fill="#FAA300"
    d="M94.6 55.6C94.6024 66.1981 90.8638 76.4569 84.0431 84.5685C77.2224 92.68 67.7573 98.1237 57.316 99.94H57.28C56.524 99.976 55.768 100 55 100C43.7347 100 32.8789 95.7753 24.5774 88.16C16.2758 80.5447 11.1323 70.0928 10.163 58.8692C9.19363 47.6456 12.469 36.4667 19.3419 27.5408C26.2148 18.6149 36.1854 12.5913 47.284 10.66H47.32C48.076 10.624 48.832 10.6 49.6 10.6C55.51 10.5981 61.3625 11.7608 66.823 14.0216C72.2835 16.2824 77.245 19.597 81.424 23.776C85.6031 27.955 88.9177 32.9165 91.1785 38.377C93.4393 43.8375 94.6019 49.69 94.6 55.6Z" />
  <path fill="white" opacity="0.14"
    d="M94.804 17.596L88.024 24.376L84.928 27.472L24.376 88.024L17.596 94.804C14.1652 91.3808 11.2071 87.5146 8.80004 83.308C6.0026 78.4479 3.98221 73.1803 2.81204 67.696C2.00494 63.9173 1.59869 60.064 1.60004 56.2C1.60471 47.9002 3.50043 39.7106 7.14327 32.253C10.7861 24.7953 16.0803 18.2657 22.6238 13.16C29.1674 8.05425 36.7883 4.50657 44.9078 2.78633C53.0274 1.06609 61.4322 1.21851 69.484 3.23202C74.9201 4.58375 80.1109 6.77833 84.868 9.73602C88.475 11.9598 91.8097 14.5977 94.804 17.596Z" />
  <path fill="#B96B00"
    d="M29.6256 53.0059V55.4136H21.8056V53.0059H29.6256ZM22.7214 46.9042V61.8857H19.6345V46.9042H22.7214ZM31.8276 46.9042V61.8857H28.751V46.9042H31.8276ZM44.566 59.478V61.8857H36.5917V59.478H44.566ZM37.6 46.9042V61.8857H34.5132V46.9042H37.6ZM43.5268 53.0059V55.3519H36.5917V53.0059H43.5268ZM44.5557 46.9042V49.3222H36.5917V46.9042H44.5557ZM52.4581 49.4663L48.3834 61.8857H45.1011L50.6677 46.9042H52.7565L52.4581 49.4663ZM55.8434 61.8857L51.7584 49.4663L51.4291 46.9042H53.5385L59.136 61.8857H55.8434ZM55.6581 56.3088V58.7269H47.7455V56.3088H55.6581ZM65.1245 61.8857H61.8627L61.8833 59.478H65.1245C65.9339 59.478 66.6165 59.2962 67.1721 58.9326C67.7278 58.5622 68.1462 58.0237 68.4274 57.3172C68.7156 56.6106 68.8596 55.7566 68.8596 54.7551V54.0245C68.8596 53.2563 68.7773 52.5806 68.6127 51.9975C68.4549 51.4144 68.2182 50.924 67.9027 50.5261C67.5871 50.1282 67.1996 49.8298 66.74 49.6309C66.2804 49.4251 65.7522 49.3222 65.1554 49.3222H61.801V46.9042H65.1554C66.1569 46.9042 67.0727 47.0757 67.9027 47.4187C68.7396 47.7548 69.4633 48.2384 70.0738 48.8695C70.6843 49.5006 71.1542 50.2551 71.4834 51.1332C71.8196 52.0044 71.9876 52.975 71.9876 54.0451V54.7551C71.9876 55.8184 71.8196 56.789 71.4834 57.667C71.1542 58.5451 70.6843 59.2996 70.0738 59.9307C69.4701 60.555 68.7464 61.0386 67.9027 61.3816C67.0658 61.7177 66.1397 61.8857 65.1245 61.8857ZM63.6119 46.9042V61.8857H60.5251V46.9042H63.6119ZM82.0302 57.9654C82.0302 57.6979 81.989 57.4578 81.9067 57.2452C81.8313 57.0257 81.6872 56.8267 81.4746 56.6484C81.2619 56.4632 80.9635 56.2814 80.5794 56.103C80.1952 55.9247 79.6979 55.7395 79.0874 55.5474C78.4083 55.3279 77.7635 55.0809 77.153 54.8065C76.5493 54.5322 76.0143 54.2132 75.5478 53.8496C75.0882 53.4792 74.7246 53.0505 74.4571 52.5634C74.1964 52.0764 74.0661 51.5105 74.0661 50.8657C74.0661 50.2414 74.2033 49.6755 74.4777 49.1679C74.7521 48.6534 75.1362 48.2144 75.6301 47.8508C76.124 47.4804 76.7071 47.1957 77.3793 46.9968C78.0584 46.7979 78.8027 46.6984 79.6122 46.6984C80.7166 46.6984 81.6804 46.8973 82.5035 47.2952C83.3267 47.6931 83.9646 48.2384 84.4174 48.9312C84.877 49.6241 85.1068 50.4164 85.1068 51.3081H82.0405C82.0405 50.8691 81.9479 50.4849 81.7627 50.1557C81.5843 49.8196 81.3099 49.5555 80.9395 49.3634C80.5759 49.1713 80.1163 49.0753 79.5607 49.0753C79.0257 49.0753 78.5798 49.1576 78.2231 49.3222C77.8664 49.48 77.5988 49.6961 77.4205 49.9705C77.2421 50.238 77.153 50.5398 77.153 50.8759C77.153 51.1298 77.2147 51.3596 77.3382 51.5653C77.4685 51.7711 77.6606 51.9632 77.9144 52.1416C78.1682 52.3199 78.4803 52.488 78.8507 52.6457C79.2212 52.8035 79.6499 52.9579 80.1369 53.1088C80.9532 53.3557 81.6701 53.6335 82.2874 53.9422C82.9117 54.2509 83.433 54.5973 83.8514 54.9815C84.2699 55.3656 84.5854 55.8012 84.7981 56.2882C85.0107 56.7753 85.1171 57.3275 85.1171 57.9449C85.1171 58.5965 84.9901 59.1796 84.7363 59.6941C84.4825 60.2085 84.1155 60.6441 83.6354 61.0008C83.1552 61.3575 82.5824 61.6285 81.917 61.8137C81.2516 61.9989 80.5073 62.0915 79.6842 62.0915C78.9433 62.0915 78.2128 61.9955 77.4925 61.8034C76.7722 61.6045 76.1171 61.3061 75.5272 60.9082C74.9441 60.5104 74.4777 60.0028 74.1278 59.3854C73.778 58.768 73.6031 58.0375 73.6031 57.1937H76.7002C76.7002 57.6602 76.7722 58.0546 76.9163 58.377C77.0604 58.6994 77.2627 58.9601 77.5234 59.159C77.7909 59.3579 78.1065 59.502 78.47 59.5912C78.8404 59.6804 79.2452 59.7249 79.6842 59.7249C80.2192 59.7249 80.6583 59.6495 81.0012 59.4986C81.3511 59.3477 81.6083 59.1384 81.773 58.8709C81.9444 58.6034 82.0302 58.3016 82.0302 57.9654Z" />
  <path fill="#FFEA94"
    d="M30.8253 54.2056V56.6133H23.0053V54.2056H30.8253ZM23.9211 48.1039V63.0854H20.8342V48.1039H23.9211ZM33.0273 48.1039V63.0854H29.9507V48.1039H33.0273ZM45.7657 60.6777V63.0854H37.7914V60.6777H45.7657ZM38.7997 48.1039V63.0854H35.7129V48.1039H38.7997ZM44.7265 54.2056V56.5516H37.7914V54.2056H44.7265ZM45.7555 48.1039V50.5219H37.7914V48.1039H45.7555ZM53.6578 50.666L49.5832 63.0854H46.3008L51.8674 48.1039H53.9562L53.6578 50.666ZM57.0431 63.0854L52.9581 50.666L52.6289 48.1039H54.7382L60.3357 63.0854H57.0431ZM56.8579 57.5085V59.9266H48.9452V57.5085H56.8579ZM66.3242 63.0854H63.0624L63.083 60.6777H66.3242C67.1337 60.6777 67.8162 60.4959 68.3718 60.1324C68.9275 59.7619 69.3459 59.2234 69.6272 58.5169C69.9153 57.8104 70.0593 56.9563 70.0593 55.9548V55.2243C70.0593 54.456 69.977 53.7803 69.8124 53.1972C69.6546 52.6141 69.4179 52.1237 69.1024 51.7258C68.7868 51.328 68.3993 51.0296 67.9397 50.8306C67.4801 50.6248 66.9519 50.5219 66.3551 50.5219H63.0007V48.1039H66.3551C67.3566 48.1039 68.2724 48.2754 69.1024 48.6184C69.9393 48.9545 70.663 49.4381 71.2735 50.0692C71.884 50.7003 72.3539 51.4549 72.6831 52.3329C73.0193 53.2041 73.1873 54.1747 73.1873 55.2448V55.9548C73.1873 57.0181 73.0193 57.9887 72.6831 58.8667C72.3539 59.7448 71.884 60.4993 71.2735 61.1304C70.6698 61.7547 69.9461 62.2383 69.1024 62.5813C68.2655 62.9174 67.3394 63.0854 66.3242 63.0854ZM64.8117 48.1039V63.0854H61.7248V48.1039H64.8117ZM83.2299 59.1651C83.2299 58.8976 83.1887 58.6575 83.1064 58.4449C83.031 58.2254 82.8869 58.0264 82.6743 57.8481C82.4616 57.6629 82.1632 57.4811 81.7791 57.3027C81.3949 57.1244 80.8976 56.9392 80.2871 56.7471C79.608 56.5276 78.9632 56.2806 78.3527 56.0063C77.749 55.7319 77.214 55.4129 76.7475 55.0493C76.2879 54.6789 75.9243 54.2502 75.6568 53.7631C75.3961 53.2761 75.2658 52.7102 75.2658 52.0654C75.2658 51.4411 75.403 50.8752 75.6774 50.3676C75.9518 49.8531 76.3359 49.4141 76.8298 49.0505C77.3237 48.6801 77.9068 48.3954 78.579 48.1965C79.2581 47.9976 80.0024 47.8981 80.8119 47.8981C81.9163 47.8981 82.8801 48.097 83.7032 48.4949C84.5264 48.8928 85.1643 49.4381 85.6171 50.1309C86.0767 50.8238 86.3065 51.6161 86.3065 52.5078H83.2402C83.2402 52.0688 83.1476 51.6847 82.9624 51.3554C82.784 51.0193 82.5096 50.7552 82.1392 50.5631C81.7756 50.371 81.3161 50.275 80.7604 50.275C80.2254 50.275 79.7795 50.3573 79.4228 50.5219C79.0661 50.6797 78.7985 50.8958 78.6202 51.1702C78.4418 51.4377 78.3527 51.7395 78.3527 52.0757C78.3527 52.3295 78.4144 52.5593 78.5379 52.7651C78.6682 52.9708 78.8603 53.1629 79.1141 53.3413C79.3679 53.5196 79.68 53.6877 80.0504 53.8455C80.4209 54.0032 80.8496 54.1576 81.3366 54.3085C82.1529 54.5554 82.8698 54.8332 83.4871 55.1419C84.1114 55.4506 84.6327 55.797 85.0511 56.1812C85.4696 56.5653 85.7851 57.0009 85.9978 57.4879C86.2104 57.975 86.3168 58.5272 86.3168 59.1446C86.3168 59.7962 86.1899 60.3793 85.936 60.8938C85.6822 61.4083 85.3152 61.8438 84.8351 62.2006C84.3549 62.5573 83.7821 62.8282 83.1167 63.0134C82.4513 63.1986 81.7071 63.2912 80.8839 63.2912C80.143 63.2912 79.4125 63.1952 78.6922 63.0031C77.972 62.8042 77.3169 62.5058 76.7269 62.1079C76.1438 61.7101 75.6774 61.2025 75.3275 60.5851C74.9777 59.9677 74.8028 59.2372 74.8028 58.3934H77.8999C77.8999 58.8599 77.972 59.2543 78.116 59.5767C78.2601 59.8991 78.4624 60.1598 78.7231 60.3587C78.9906 60.5577 79.3062 60.7017 79.6697 60.7909C80.0401 60.8801 80.4449 60.9246 80.8839 60.9246C81.4189 60.9246 81.858 60.8492 82.201 60.6983C82.5508 60.5474 82.808 60.3381 82.9727 60.0706C83.1442 59.8031 83.2299 59.5013 83.2299 59.1651Z" />
</svg>