<svg width="16" height="16" viewBox="0 0 16 16" fill="none" xmlns="http://www.w3.org/2000/svg">
<g clip-path="url(#clip0_15073_49)">
<path d="M15.8836 7.94182C15.8825 9.69232 15.3031 11.3934 14.2355 12.7807C13.168 14.168 11.6721 15.1639 9.98036 15.6135C8.2886 16.0631 6.49568 15.9412 4.88025 15.2671C3.26483 14.5927 1.91737 13.4037 1.04727 11.8848C0.640374 11.1779 0.346497 10.4117 0.176291 9.61396C0.058895 9.06434 -0.000195568 8.50384 4.86252e-07 7.94182C0.000679676 6.73457 0.276422 5.54336 0.806288 4.4586C1.33616 3.37386 2.10623 2.4241 3.05801 1.68145C4.00979 0.938794 5.11828 0.422768 6.29932 0.172551C7.48035 -0.0776652 8.70285 -0.0554947 9.87404 0.23738C10.6647 0.433996 11.4198 0.753207 12.1117 1.18342C13.2644 1.89498 14.216 2.88943 14.8762 4.07231C15.5364 5.25517 15.8832 6.58719 15.8836 7.94182Z" fill="#FFDE50"/>
<path d="M14.4873 7.94183C14.4878 9.61964 13.8438 11.2335 12.6884 12.4501C11.5329 13.6666 9.95429 14.3928 8.27868 14.4786H8.27345C8.16348 14.4838 8.05352 14.4873 7.94181 14.4873C6.30321 14.4873 4.7242 13.8728 3.51669 12.7651C2.3092 11.6574 1.56106 10.1372 1.42006 8.50463C1.27906 6.8721 1.75547 5.24607 2.75518 3.94775C3.75487 2.64946 5.20514 1.7733 6.81948 1.49238H6.82472C7.76488 1.32926 8.72935 1.37373 9.65051 1.62266C10.5717 1.87159 11.4273 2.31897 12.1573 2.93343C12.8873 3.54788 13.4742 4.31456 13.8766 5.17972C14.2791 6.0449 14.4875 6.98762 14.4873 7.94183Z" fill="#F68E00"/>
<path d="M13.7018 8.0291C13.7022 9.57064 13.1584 11.0628 12.1663 12.2427C11.1741 13.4226 9.79742 14.2143 8.27868 14.4786H8.27345C8.16348 14.4838 8.05352 14.4873 7.94181 14.4873C6.30321 14.4873 4.7242 13.8728 3.51669 12.7651C2.3092 11.6574 1.56106 10.1371 1.42006 8.50462C1.27906 6.87209 1.75547 5.24606 2.75518 3.94776C3.75487 2.64945 5.20514 1.77329 6.81948 1.49237H6.82472C6.93468 1.48713 7.04465 1.48364 7.15636 1.48364C8.01599 1.48337 8.86727 1.65249 9.66152 1.98133C10.4558 2.31016 11.1774 2.7923 11.7853 3.40015C12.3932 4.00801 12.8753 4.72968 13.2041 5.52393C13.533 6.31819 13.7021 7.16946 13.7018 8.0291Z" fill="#FAA300"/>
<path opacity="0.14" d="M13.7315 2.50124L12.7453 3.48742L12.295 3.93774L3.48742 12.7453L2.50123 13.7315C2.00221 13.2336 1.57192 12.6712 1.22182 12.0594C0.814918 11.3524 0.521042 10.5862 0.350837 9.78852C0.23344 9.23889 0.174349 8.67841 0.174546 8.11638C0.175224 6.90913 0.450966 5.71792 0.980834 4.63316C1.5107 3.54842 2.28077 2.59866 3.23255 1.85601C4.18435 1.11335 5.29283 0.59733 6.47386 0.347112C7.65489 0.0968954 8.87741 0.119066 10.0486 0.411941C10.8393 0.608556 11.5943 0.927768 12.2863 1.35798C12.8109 1.68144 13.2959 2.06513 13.7315 2.50124Z" fill="white"/>
</g>
<defs>
<clipPath id="clip0_15073_49">
<rect width="16" height="16" fill="white"/>
</clipPath>
</defs>
</svg>
