<svg viewBox="0 0 110 110" fill="none" xmlns="http://www.w3.org/2000/svg">
  <path fill="#FFDE50"
    d="M109.2 54.6C109.192 66.6347 105.209 78.3296 97.8694 87.8674C90.5301 97.4052 80.2459 104.252 68.615 107.343C56.9841 110.434 44.6578 109.596 33.5517 104.961C22.4457 100.325 13.1819 92.1507 7.2 81.708C4.40257 76.8479 2.38217 71.5803 1.212 66.096C0.404903 62.3173 -0.00134453 58.4639 3.34296e-06 54.6C0.00467277 46.3002 1.9004 38.1106 5.54323 30.6529C9.18607 23.1953 14.4803 16.6657 21.0238 11.56C27.5673 6.45421 35.1882 2.90653 43.3078 1.18629C51.4274 -0.533948 59.8321 -0.381526 67.884 1.63199C73.32 2.98372 78.5109 5.1783 83.268 8.13599C91.1928 13.028 97.7352 19.8648 102.274 27.9971C106.813 36.1293 109.197 45.2869 109.2 54.6Z" />
  <path fill="#F68E00"
    d="M99.6 54.6C99.6039 66.1349 95.1765 77.2305 87.2327 85.5942C79.2889 93.9578 68.4358 98.9503 56.916 99.54H56.88C56.124 99.576 55.368 99.6 54.6 99.6C43.3346 99.6002 32.4789 95.3753 24.1773 87.76C15.8758 80.1447 10.7323 69.6928 9.76295 58.4692C8.7936 47.2456 12.0689 36.0666 18.9419 27.1407C25.8148 18.2149 35.7854 12.1913 46.884 10.26H46.92C53.3836 9.13857 60.0143 9.44427 66.3473 11.1557C72.6803 12.8671 78.5625 15.9428 83.5814 20.1672C88.6004 24.3916 92.6349 29.6625 95.402 35.6105C98.1691 41.5586 99.6019 48.0398 99.6 54.6Z" />
  <path fill="#FAA300"
    d="M94.2 55.2C94.2024 65.7981 90.4638 76.0569 83.6431 84.1684C76.8223 92.28 67.3573 97.7236 56.916 99.54H56.88C56.124 99.576 55.368 99.6 54.6 99.6C43.3346 99.6002 32.4789 95.3753 24.1773 87.76C15.8758 80.1447 10.7323 69.6928 9.76295 58.4692C8.7936 47.2456 12.0689 36.0666 18.9419 27.1408C25.8148 18.2149 35.7854 12.1913 46.884 10.26H46.92C47.676 10.224 48.432 10.2 49.2 10.2C55.11 10.1981 60.9625 11.3608 66.423 13.6216C71.8835 15.8823 76.845 19.197 81.024 23.376C85.203 27.555 88.5176 32.5165 90.7784 37.977C93.0392 43.4375 94.2019 49.29 94.2 55.2Z" />
  <path opacity="0.14" fill="white"
    d="M94.404 17.1959L87.624 23.9759L84.528 27.0719L23.976 87.624L17.196 94.404C13.7652 90.9808 10.807 87.1146 8.40002 82.908C5.60258 78.0479 3.58218 72.7803 2.41202 67.296C1.60492 63.5173 1.19867 59.664 1.20002 55.8C1.20468 47.5002 3.10041 39.3106 6.74325 31.8529C10.3861 24.3953 15.6803 17.8657 22.2238 12.76C28.7674 7.65422 36.3882 4.10655 44.5078 2.3863C52.6274 0.666064 61.0322 0.818486 69.084 2.832C74.5201 4.18373 79.7109 6.37831 84.468 9.336C88.075 11.5598 91.4096 14.1977 94.404 17.1959Z" />
  <path fill="#B96B00"
    d="M30.7328 46.5043V61.4858H27.6562V46.5043H30.7328ZM35.3425 46.5043V48.9223H23.1185V46.5043H35.3425ZM42.0821 49.0664L38.0075 61.4858H34.7251L40.2917 46.5043H42.3805L42.0821 49.0664ZM45.4674 61.4858L41.3824 49.0664L41.0532 46.5043H43.1625L48.76 61.4858H45.4674ZM45.2822 55.9089V58.327H37.3695V55.9089H45.2822ZM53.4315 46.5043V61.4858H50.3549V46.5043H53.4315ZM65.9538 59.0781V61.4858H58.4116V59.0781H65.9538ZM59.4097 46.5043V61.4858H56.3228V46.5043H59.4097ZM75.5231 57.5655C75.5231 57.298 75.4819 57.0579 75.3996 56.8453C75.3241 56.6258 75.1801 56.4268 74.9674 56.2485C74.7548 56.0633 74.4564 55.8815 74.0723 55.7031C73.6881 55.5248 73.1908 55.3396 72.5803 55.1475C71.9012 54.928 71.2564 54.681 70.6458 54.4066C70.0422 54.1323 69.5071 53.8133 69.0407 53.4497C68.5811 53.0793 68.2175 52.6506 67.95 52.1635C67.6893 51.6765 67.559 51.1106 67.559 50.4658C67.559 49.8415 67.6962 49.2756 67.9706 48.768C68.245 48.2535 68.6291 47.8145 69.123 47.4509C69.6169 47.0805 70.2 46.7958 70.8722 46.5969C71.5513 46.398 72.2956 46.2985 73.105 46.2985C74.2094 46.2985 75.1732 46.4974 75.9964 46.8953C76.8196 47.2932 77.4575 47.8385 77.9102 48.5313C78.3698 49.2242 78.5996 50.0164 78.5996 50.9082H75.5334C75.5334 50.4692 75.4408 50.085 75.2555 49.7558C75.0772 49.4197 74.8028 49.1556 74.4324 48.9635C74.0688 48.7714 73.6092 48.6754 73.0536 48.6754C72.5185 48.6754 72.0727 48.7577 71.716 48.9223C71.3592 49.0801 71.0917 49.2962 70.9134 49.5706C70.735 49.8381 70.6458 50.1399 70.6458 50.476C70.6458 50.7299 70.7076 50.9597 70.8311 51.1654C70.9614 51.3712 71.1535 51.5633 71.4073 51.7417C71.6611 51.92 71.9732 52.0881 72.3436 52.2458C72.714 52.4036 73.1428 52.558 73.6298 52.7089C74.4461 52.9558 75.1629 53.2336 75.7803 53.5423C76.4045 53.851 76.9259 54.1974 77.3443 54.5816C77.7628 54.9657 78.0783 55.4013 78.291 55.8883C78.5036 56.3754 78.6099 56.9276 78.6099 57.545C78.6099 58.1966 78.483 58.7797 78.2292 59.2942C77.9754 59.8086 77.6084 60.2442 77.1282 60.6009C76.6481 60.9576 76.0753 61.2286 75.4099 61.4138C74.7445 61.599 74.0002 61.6916 73.1771 61.6916C72.4362 61.6916 71.7057 61.5956 70.9854 61.4035C70.2651 61.2046 69.61 60.9062 69.0201 60.5083C68.437 60.1105 67.9706 59.6029 67.6207 58.9855C67.2709 58.3681 67.096 57.6376 67.096 56.7938H70.1931C70.1931 57.2603 70.2651 57.6547 70.4092 57.9771C70.5532 58.2995 70.7556 58.5602 71.0163 58.7591C71.2838 58.958 71.5993 59.1021 71.9629 59.1913C72.3333 59.2805 72.738 59.325 73.1771 59.325C73.7121 59.325 74.1511 59.2496 74.4941 59.0987C74.844 58.9478 75.1012 58.7385 75.2658 58.471C75.4373 58.2035 75.5231 57.9017 75.5231 57.5655Z" />
  <path fill="#FFEA94"
    d="M31.933 47.7045V62.686H28.8564V47.7045H31.933ZM36.5427 47.7045V50.1225H24.3187V47.7045H36.5427ZM43.2823 50.2666L39.2077 62.686H35.9253L41.4919 47.7045H43.5807L43.2823 50.2666ZM46.6676 62.686L42.5826 50.2666L42.2534 47.7045H44.3627L49.9602 62.686H46.6676ZM46.4824 57.1091V59.5272H38.5697V57.1091H46.4824ZM54.6317 47.7045V62.686H51.5551V47.7045H54.6317ZM67.154 60.2783V62.686H59.6118V60.2783H67.154ZM60.6099 47.7045V62.686H57.523V47.7045H60.6099ZM76.7233 58.7657C76.7233 58.4982 76.6821 58.2581 76.5998 58.0455C76.5243 57.8259 76.3803 57.627 76.1676 57.4487C75.955 57.2635 75.6566 57.0817 75.2724 56.9033C74.8883 56.725 74.391 56.5398 73.7805 56.3477C73.1014 56.1282 72.4565 55.8812 71.846 55.6068C71.2424 55.3325 70.7073 55.0135 70.2409 54.6499C69.7813 54.2795 69.4177 53.8508 69.1502 53.3637C68.8895 52.8767 68.7592 52.3108 68.7592 51.666C68.7592 51.0417 68.8964 50.4758 69.1708 49.9682C69.4451 49.4537 69.8293 49.0147 70.3232 48.6511C70.8171 48.2807 71.4002 47.996 72.0724 47.7971C72.7515 47.5982 73.4958 47.4987 74.3052 47.4987C75.4096 47.4987 76.3734 47.6976 77.1966 48.0955C78.0198 48.4933 78.6577 49.0387 79.1104 49.7315C79.57 50.4244 79.7998 51.2166 79.7998 52.1084H76.7336C76.7336 51.6694 76.641 51.2852 76.4557 50.956C76.2774 50.6199 76.003 50.3558 75.6326 50.1637C75.269 49.9716 74.8094 49.8756 74.2538 49.8756C73.7187 49.8756 73.2729 49.9579 72.9161 50.1225C72.5594 50.2803 72.2919 50.4964 72.1136 50.7708C71.9352 51.0383 71.846 51.3401 71.846 51.6762C71.846 51.9301 71.9078 52.1599 72.0312 52.3656C72.1616 52.5714 72.3537 52.7635 72.6075 52.9419C72.8613 53.1202 73.1734 53.2883 73.5438 53.446C73.9142 53.6038 74.343 53.7582 74.83 53.9091C75.6463 54.156 76.3631 54.4338 76.9805 54.7425C77.6047 55.0512 78.1261 55.3976 78.5445 55.7818C78.963 56.1659 79.2785 56.6015 79.4912 57.0885C79.7038 57.5756 79.8101 58.1278 79.8101 58.7451C79.8101 59.3968 79.6832 59.9799 79.4294 60.4944C79.1756 61.0088 78.8086 61.4444 78.3284 61.8011C77.8483 62.1578 77.2755 62.4288 76.6101 62.614C75.9447 62.7992 75.2004 62.8918 74.3773 62.8918C73.6364 62.8918 72.9059 62.7958 72.1856 62.6037C71.4653 62.4048 70.8102 62.1064 70.2203 61.7085C69.6372 61.3107 69.1708 60.8031 68.8209 60.1857C68.4711 59.5683 68.2962 58.8378 68.2962 57.994H71.3933C71.3933 58.4605 71.4653 58.8549 71.6094 59.1773C71.7534 59.4997 71.9558 59.7604 72.2165 59.9593C72.484 60.1582 72.7995 60.3023 73.1631 60.3915C73.5335 60.4806 73.9382 60.5252 74.3773 60.5252C74.9123 60.5252 75.3513 60.4498 75.6943 60.2989C76.0442 60.148 76.3014 59.9387 76.466 59.6712C76.6375 59.4037 76.7233 59.1019 76.7233 58.7657Z" />
</svg>