<?xml version="1.0" ?>
<svg version="1.1" viewBox="0 0 128 128" xml:space="preserve" xmlns="http://www.w3.org/2000/svg" xmlns:xlink="http://www.w3.org/1999/xlink">
  <path fill="#f2fa0c"
    d="M64.478,92.582c-8.949,0-16.23-6.85-16.23-15.268c0-1.104,0.896-2,2-2s2,0.896,2,2c0,6.213,5.486,11.268,12.23,11.268   c6.743,0,12.229-5.055,12.229-11.268s-5.485-11.268-12.229-11.268c-8.949,0-16.23-6.849-16.23-15.268   c0-8.418,7.281-15.267,16.23-15.267c4.811,0,9.342,1.988,12.434,5.455c0.735,0.825,0.663,2.089-0.161,2.824   s-2.09,0.662-2.823-0.161c-2.334-2.617-5.778-4.118-9.449-4.118c-6.744,0-12.23,5.054-12.23,11.267   c0,6.213,5.486,11.268,12.23,11.268c8.948,0,16.229,6.85,16.229,15.268S73.426,92.582,64.478,92.582z" />
  <path fill="#f2fa0c" d="M64.032,99.842c-1.104,0-2-0.896-2-2v-67.59c0-1.104,0.896-2,2-2s2,0.896,2,2v67.59   C66.032,98.946,65.137,99.842,64.032,99.842z" />
</svg>