<?xml version="1.0" ?>
<svg viewBox="0 0 512 512" xmlns="http://www.w3.org/2000/svg">
  <path fill="#ffc700" d="M316.49,151.2A151.37,151.37,0,0,1,353.64,146c1.23,0,2.18,0,2.83,0s1.56,0,2.77,0a151.37,151.37,0,0,1,37.15,5.18l22.24-39.08a26.26,26.26,0,0,0-18.41,3.51,18.39,18.39,0,0,1-25-5.42c-3.91-5.77-12.37-7-18.8-7s-14.88,1.22-18.8,7a18.58,18.58,0,0,1-25,5.4,26,26,0,0,0-18.41-3.5Z" />
  <path fill="#ffc700"
    d="M204.17,112.82c1.74,0,3,0,3.81.05s1.91-.05,3.64-.05a197.82,197.82,0,0,1,51.2,7.51l32.72-57.52c-11.78-4-22.07-2.53-31.1,3.09a21.34,21.34,0,0,1-28.63-6.21c-4.8-7.1-14.45-10.84-27.92-10.84S184.77,52.6,180,59.69a21.32,21.32,0,0,1-28.63,6.21c-9-5.59-19.28-7.09-30.5-4.44l32.34,58.8A197.86,197.86,0,0,1,204.17,112.82Z" />
  <path fill="#ffc700"
    d="M387.1,411.63a10.25,10.25,0,0,1-2.47-3.48,10.45,10.45,0,0,1-.88-4.11c0-19.26-2.14-119.16-39.37-194.27a127.74,127.74,0,0,0-6.61-11.68c-1.17-1.87-2.44-3.58-3.67-5.34-1.11-1.57-2.2-3.17-3.35-4.65-1.77-2.3-3.61-4.46-5.47-6.57-.57-.63-1.12-1.27-1.69-1.88-21.53-23.39-48.45-35-70.87-40.68h0c-2-.52-4-.95-5.93-1.38l-1.77-.38c-1.92-.39-3.77-.75-5.59-1.07l-1.16-.19c-5.62-.93-10.65-1.53-14.92-1.87-.54-.05-1.08-.1-1.59-.13-1.07-.08-2-.14-3-.19-.78,0-1.48-.08-2.18-.11l-1.82-.06c-1.21,0-2.29-.06-3.14-.06l-2.78,0c-1.67,0-2.85,0-4.67,0-.85,0-1.94,0-3.15.06l-1.81.06c-.7,0-1.4.06-2.18.11-1,.05-1.93.11-3,.19-.51,0-1,.08-1.58.13-4.27.34-9.3.94-14.93,1.87l-1.15.19c-1.82.32-3.68.68-5.6,1.07l-1.76.38c-1.95.42-3.9.86-5.94,1.38-30.52,7.7-69.55,26.23-91.65,70.8C34.1,285.08,32.06,384.8,32,404a10.42,10.42,0,0,1-3.36,7.62C14.74,424.42,6.77,437.89,9.28,444.4c1.93,5,10.47,6.05,17.29,6.05a106.63,106.63,0,0,0,20.25-2.28A10.91,10.91,0,0,1,49,448a10.66,10.66,0,0,1,2.38.27c10.54,2.5,67.64,14.92,156.56,14.92s146-12.42,156.57-14.92a10.39,10.39,0,0,1,4.51-.06,106.63,106.63,0,0,0,20.25,2.28c6.81,0,15.36-1.05,17.29-6.06C409,437.93,401,424.45,387.1,411.63Zm-84.78-91.71c-.11.64-.17,1.29-.29,1.93a96.29,96.29,0,0,1-4,14.6c-.26.74-.52,1.48-.81,2.21a95.37,95.37,0,0,1-6.45,13.48c-.31.53-.64,1-1,1.57a97,97,0,0,1-9,12.62l-.22.24a97.14,97.14,0,0,1-40.45,28.08l-.32.12a97.3,97.3,0,0,1-16.41,4.35h0a96.92,96.92,0,1,1-16.53-192.41A96.31,96.31,0,0,1,257.25,221a97.72,97.72,0,0,1,26.61,24c.25.32.49.65.73,1a95.06,95.06,0,0,1,6,9c.18.32.39.63.57,1a95.72,95.72,0,0,1,5.28,10.7s0,.09.05.14A94.34,94.34,0,0,1,300,277.15c.29,1,.53,2,.79,3.05.69,2.76,1.25,5.58,1.69,8.43.18,1.11.38,2.2.51,3.32a89.66,89.66,0,0,1-.69,28Z" />
  <path fill="#ffc700"
    d="M489.1,374.64a10.44,10.44,0,0,1-3.36-7.61c0-14.34-1.57-88.71-29.24-144.55-26.32-53-85.63-55.74-97.26-55.74l-1.87,0a11.51,11.51,0,0,1-1.44,0l-2.29,0a117.67,117.67,0,0,0-13,.84,149.44,149.44,0,0,1,22.33,33c36.93,74.51,41.1,171,41.51,199,2.12,2.09,4.34,4.48,6.54,7,34.74-2.86,56.88-7.6,62.28-8.87a10.1,10.1,0,0,1,4.51-.07,77.61,77.61,0,0,0,14.66,1.65c5.75,0,9.89-1.13,10.56-2.87C504.23,393.12,499.38,384.09,489.1,374.64Z" />
  <path fill="#ffc700"
    d="M247.28,316.07a35.65,35.65,0,0,0-10.88-10.21,47.92,47.92,0,0,0-15.64-6V251.49a19.8,19.8,0,0,1,4.42,2.19,32,32,0,0,1,6.69,6.06,21.86,21.86,0,0,1,3.89,7,37.63,37.63,0,0,1,1.65,8c.58,5.18,4.44,6.73,7.33,6.33,1.62-.19,5.53-1.24,6.82-7.77-.28-10.52-3.69-19.08-10.12-25.4a39,39,0,0,0-20.68-10.57v-7.6a8,8,0,0,0-2.87-6.22,8.17,8.17,0,0,0-10.91.24,8,8,0,0,0-2.42,6v6.69a56.35,56.35,0,0,0-14.26,3.21,39.92,39.92,0,0,0-14.07,8.62A36.57,36.57,0,0,0,167.56,261a34,34,0,0,0-2.16,15.7A37,37,0,0,0,178,301.19c6.93,5.78,16.09,9.32,26.54,10.41l0,46.25c-8.45-.79-15.08-3-19.75-6.5-5.36-4.05-8.66-8.91-10-14.4-.34-2.88-2.47-6-7.28-6.15a6.36,6.36,0,0,0-5.6,2.1,6,6,0,0,0-1.14,5.52c2,10.67,7.49,18.95,16.36,24.61,7.69,4.84,16.9,7.72,27.41,8.56v6.1a7.7,7.7,0,0,0,2.61,6.19,8.22,8.22,0,0,0,5.29,1.95A8.74,8.74,0,0,0,217.8,384a7.58,7.58,0,0,0,3-6.29v-6.3c10.08-1.32,17.77-4.84,22.88-10.47,5.61-6.21,8.73-13.06,9.24-20.29a43.8,43.8,0,0,0-.67-12.05A33.12,33.12,0,0,0,247.28,316.07Zm-42.72-18.52a38.76,38.76,0,0,1-10.17-3.14,34.21,34.21,0,0,1-8.65-5.87,15.93,15.93,0,0,1-4-5.8,30.27,30.27,0,0,1-1.52-6.82A23.4,23.4,0,0,1,186.89,258c4.13-4.29,10.06-7,17.67-7.9Zm34.33,42.72a15.19,15.19,0,0,1-.95,4.41,17.54,17.54,0,0,1-3,5.49,21.85,21.85,0,0,1-6.56,5.06,24.25,24.25,0,0,1-7.65,2.37V314.17c5.9,1.68,10.21,4.12,13.1,7.41,3.58,4.16,5.23,10.24,5,18.6Z" />
</svg>