<svg viewBox="0 0 100 100" fill="none" xmlns="http://www.w3.org/2000/svg">
  <path fill="#de590d"
    d="M43.7555 83.1398C43.3438 83.1494 42.9346 83.0723 42.5546 82.9148C42.1742 82.7569 41.8313 82.5215 41.5471 82.2232L19.8388 60.5566C19.2867 59.9642 18.9863 59.1807 19.0005 58.3711C19.0151 57.5615 19.343 56.7891 19.9155 56.2165C20.488 55.6439 21.2605 55.316 22.0701 55.3017C22.8796 55.2874 23.663 55.5879 24.2555 56.1399L45.9638 77.8065C46.5492 78.3927 46.8776 79.1869 46.8776 80.0148C46.8776 80.8432 46.5492 81.6373 45.9638 82.2232C45.6755 82.5152 45.3313 82.7469 44.9521 82.9044C44.573 83.0619 44.1659 83.1419 43.7555 83.1398Z" />
  <path fill="#de590d"
    d="M22.2554 82.9315C21.845 82.9336 21.4379 82.8536 21.0588 82.6961C20.6796 82.5386 20.3354 82.3069 20.0471 82.0148C19.4621 81.429 19.1334 80.6348 19.1334 79.8065C19.1334 78.9786 19.4621 78.184 20.0471 77.5982L41.7554 55.9315C42.0425 55.6367 42.3863 55.4024 42.7654 55.2424C43.1446 55.0824 43.5521 55 43.9638 55C44.3754 55 44.7829 55.0824 45.1621 55.2424C45.5413 55.4024 45.885 55.6367 46.1721 55.9315C46.7575 56.5175 47.0859 57.3118 47.0859 58.1399C47.0859 58.968 46.7575 59.7622 46.1721 60.3482L24.4638 82.0148C24.1767 82.309 23.8329 82.5419 23.4534 82.6994C23.0738 82.8569 22.6663 82.9357 22.2554 82.9315Z" />
  <path fill="#de590d"
    d="M78.2917 49.25C77.88 49.2596 77.4708 49.1825 77.0908 49.025C76.7104 48.8671 76.3675 48.6317 76.0833 48.3333L54.375 26.6667C53.8229 26.0744 53.5225 25.2908 53.5367 24.4812C53.5513 23.6717 53.8792 22.8992 54.4517 22.3267C55.0242 21.7541 55.7967 21.4262 56.6063 21.4119C57.4158 21.3976 58.1992 21.6981 58.7917 22.2501L80.5 43.9167C81.0854 44.5029 81.4138 45.2971 81.4138 46.125C81.4138 46.9533 81.0854 47.7475 80.5 48.3333C80.2117 48.6254 79.8675 48.8571 79.4883 49.0146C79.1092 49.1721 78.7021 49.2521 78.2917 49.25Z" />
  <path fill="#de590d"
    d="M56.7916 49.0417C56.3812 49.0438 55.9741 48.9638 55.595 48.8063C55.2158 48.6488 54.8716 48.4171 54.5833 48.125C53.9983 47.5392 53.6696 46.745 53.6696 45.9167C53.6696 45.0888 53.9983 44.2942 54.5833 43.7083L76.2916 22.0417C76.5787 21.7469 76.9225 21.5125 77.3016 21.3526C77.6808 21.1926 78.0883 21.1102 78.5 21.1102C78.9116 21.1102 79.3191 21.1926 79.6983 21.3526C80.0775 21.5125 80.4212 21.7469 80.7083 22.0417C81.2937 22.6276 81.6221 23.4219 81.6221 24.25C81.6221 25.0782 81.2937 25.8724 80.7083 26.4584L59 48.125C58.7129 48.4192 58.3691 48.6521 57.9896 48.8096C57.61 48.9671 57.2025 49.0458 56.7916 49.0417Z" />
  <path fill="#6ede0d"
    d="M32.4584 49.1667C29.6729 49.1667 26.9501 48.3409 24.6341 46.7934C22.3181 45.2459 20.513 43.0463 19.447 40.4729C18.3811 37.8995 18.1022 35.0678 18.6456 32.3359C19.189 29.604 20.5303 27.0946 22.4999 25.125C24.4695 23.1554 26.9789 21.8141 29.7108 21.2707C32.4427 20.7273 35.2744 21.0061 37.8478 22.0721C40.4212 23.138 42.6208 24.9431 44.1683 27.2591C45.7158 29.5751 46.5417 32.298 46.5417 35.0834C46.5308 38.8151 45.0433 42.3909 42.4046 45.0296C39.7659 47.6684 36.1901 49.1559 32.4584 49.1667ZM32.4584 27.2501C30.9091 27.2501 29.3946 27.7095 28.1064 28.5702C26.8182 29.4309 25.8142 30.6544 25.2213 32.0857C24.6284 33.5171 24.4733 35.0921 24.7755 36.6116C25.0778 38.1311 25.8238 39.5269 26.9193 40.6224C28.0149 41.7179 29.4106 42.4638 30.9302 42.7663C32.4497 43.0684 34.0247 42.9134 35.456 42.3204C36.8874 41.7275 38.1108 40.7236 38.9715 39.4354C39.8322 38.1472 40.2917 36.6327 40.2917 35.0834C40.2917 33.0058 39.4664 31.0134 37.9974 29.5444C36.5283 28.0754 34.5359 27.2501 32.4584 27.2501Z" />
  <path fill="#6ede0d"
    d="M67.5417 83.3333C64.7562 83.3333 62.0333 82.5075 59.7175 80.96C57.4012 79.4125 55.5962 77.2129 54.5304 74.6396C53.4646 72.0662 53.1854 69.2346 53.7287 66.5025C54.2725 63.7708 55.6137 61.2612 57.5833 59.2916C59.5529 57.3221 62.0621 55.9808 64.7942 55.4375C67.5262 54.8941 70.3579 55.1729 72.9312 56.2387C75.5046 57.3046 77.7042 59.11 79.2517 61.4258C80.7992 63.7416 81.625 66.4646 81.625 69.25C81.6142 72.9816 80.1267 76.5575 77.4879 79.1962C74.8492 81.835 71.2733 83.3225 67.5417 83.3333ZM67.5417 61.4166C65.9925 61.4166 64.4779 61.8762 63.1896 62.7371C61.9017 63.5975 60.8975 64.8212 60.3046 66.2525C59.7117 67.6837 59.5567 69.2587 59.8587 70.7783C60.1612 72.2979 60.9071 73.6937 62.0025 74.7891C63.0983 75.8846 64.4937 76.6308 66.0133 76.9329C67.5329 77.235 69.1079 77.08 70.5392 76.4871C71.9708 75.8941 73.1942 74.8904 74.055 73.6021C74.9154 72.3137 75.375 70.7996 75.375 69.25C75.375 67.1725 74.5496 65.18 73.0808 63.7112C71.6117 62.2421 69.6192 61.4166 67.5417 61.4166Z" />
</svg>