<?xml version="1.0" ?>
<svg version="1.1" viewBox="0 0 846.66 846.66" xml:space="preserve" xmlns="http://www.w3.org/2000/svg" xmlns:xlink="http://www.w3.org/1999/xlink">
   <path fill="#f6d606"
      d="M156.44 10.7l533.78 0c11.4,0 20.63,9.24 20.63,20.63l0 784c0,11.39 -9.23,20.63 -20.63,20.63l-533.78 0c-11.4,0 -20.63,-9.24 -20.63,-20.63l0 -784c0,-11.39 9.23,-20.63 20.63,-20.63zm125.95 434.41c-17.78,20.32 -48.73,-6.76 -30.94,-27.08l150.78 -171.79 -30.37 -1.21c-27.03,-1.06 -25.42,-42.17 1.62,-41.11l73.43 2.94c16.96,0.68 26.15,20.96 14.67,34.09l-179.19 204.16zm300.41 269.92c0,27.14 -41.26,27.14 -41.26,0l0 -447.96c0,-27.14 41.26,-27.14 41.26,0l0 447.96zm-90.08 0c0,27.14 -41.26,27.14 -41.26,0l0 -358.37c0,-27.14 41.26,-27.14 41.26,0l0 358.37zm-90.08 0c0,27.14 -41.26,27.14 -41.26,0l0 -268.78c0,-27.13 41.26,-27.13 41.26,0l0 268.78zm-90.08 0c0,27.14 -41.26,27.14 -41.26,0l0 -167.44c0,-27.13 41.26,-27.13 41.26,0l0 167.44zm357.03 -663.07l-492.52 0 0 742.74 492.52 0 0 -742.74z" />
</svg>